:SAMPLES-PER-SECOND 30
:FULLY-SPECIFIED
:DEGREES
129
root  -45.0531 38.944 15.7846 152.421 73.6391 153.434
RightUpLeg  16.9912 -10.3675 0.109557
RightLeg  12.13 -5.26296 5.19616
RightFoot  -21.1002 -0.728594 -6.8551
RightToes  0.000482159 0.542163 -0.142577
Spine  18.5084 5.98475 14.3227
Spine1  11.7002 13.193 -15.4497
HEad  -6.85878 -13.6568 -0.209864
LeftShoulder1  10.0449 -14.7619 -48.0072
LeftArm  -20.786 27.9147 -20.0884
LeftForeArm  6.63893 -68.1885 -29.6551
LeftHand  -0.25398 0.0180481 5.50724
RightShoulder  6.11624 12.667 31.8673
RightArm  42.2156 40.9538 72.8438
RightForeArm  -21.4531 14.821 11.7028
RightHand  -0.1626 -11.3789 1.49889
LeftUpLeg  -21.7609 -0.761025 -10.1598
LeftLeg  3.80553 17.1829 -5.6129
LeftFoot  -0.913221 0.574183 -6.20494
LeftToes  1.06248e-005 4.65855e-005 -8.18498e-006
130
root  -43.3496 38.6581 15.8065 148.388 75.2305 149.446
RightUpLeg  19.4356 -12.4468 -1.57589
RightLeg  13.7993 -0.271324 5.55729
RightFoot  -20.2628 -0.644594 -6.52127
RightToes  0.000482159 0.542163 -0.142577
Spine  18.0176 6.77023 14.6005
Spine1  11.9601 14.4406 -16.4406
HEad  -6.57798 -13.81 0.0433977
LeftShoulder1  9.96498 -14.6048 -48.0389
LeftArm  -20.7674 28.8116 -19.9576
LeftForeArm  8.96864 -69.1911 -31.2736
LeftHand  -0.25398 0.0180481 5.50724
RightShoulder  6.07658 12.5848 31.8145
RightArm  42.0468 40.5781 72.3603
RightForeArm  -20.6552 14.34 12.0425
RightHand  -0.215411 -10.8892 2.76449
LeftUpLeg  -21.6899 0.441668 -12.1578
LeftLeg  6.09592 14.2222 -4.44123
LeftFoot  0.191175 0.373827 -3.81008
LeftToes  1.06248e-005 4.65855e-005 -8.18498e-006
131
root  -41.5239 38.4356 15.9214 141.854 76.4083 142.723
RightUpLeg  21.6396 -16.4685 -4.90912
RightLeg  16.4268 6.53432 5.80934
RightFoot  -18.5124 -0.463461 -5.48696
RightToes  0.000482159 0.542163 -0.142577
Spine  17.6768 7.88727 13.213
Spine1  11.8451 15.5294 -16.7502
HEad  -6.43045 -13.816 0.63476
LeftShoulder1  9.89033 -14.4318 -48.1399
LeftArm  -20.6835 29.9017 -19.2188
LeftForeArm  11.3916 -70.1274 -32.9442
LeftHand  -0.25398 0.0180481 5.50724
RightShoulder  6.17002 12.6241 32.3026
RightArm  42.1495 39.7573 71.7607
RightForeArm  -20.0295 14.3142 12.0727
RightHand  -0.252793 -10.5389 3.81754
LeftUpLeg  -22.3559 4.50646 -15.5646
LeftLeg  10.8152 7.00872 -1.91698
LeftFoot  2.78008 -0.156913 1.10409
LeftToes  1.06248e-005 4.65855e-005 -8.18498e-006
132
root  -39.7015 38.3159 16.1203 135.829 76.6418 136.466
RightUpLeg  22.2672 -21.052 -8.77456
RightLeg  21.6411 13.8139 6.58308
RightFoot  -14.275 -0.16259 -1.88763
RightToes  0.000482159 0.542163 -0.142577
Spine  17.9231 8.73485 10.948
Spine1  10.9249 16.0168 -16.982
HEad  -6.49495 -13.8639 1.77315
LeftShoulder1  9.88584 -14.4099 -48.1772
LeftArm  -20.6318 30.9769 -18.0988
LeftForeArm  13.5005 -70.9753 -34.6617
LeftHand  -0.25398 0.0180481 5.50724
RightShoulder  6.36714 12.7265 33.2747
RightArm  42.2273 38.6452 71.1775
RightForeArm  -20.3478 14.6274 11.8987
RightHand  -0.229852 -10.0636 3.71958
LeftUpLeg  -23.2417 7.84531 -18.393
LeftLeg  16.0954 2.26209 0.705671
LeftFoot  3.95473 -0.769959 5.61468
LeftToes  1.06248e-005 4.65855e-005 -8.18498e-006
133
root  -38.046 38.3114 16.3211 132.53 76.3179 133.026
RightUpLeg  18.8925 -19.6048 -9.61075
RightLeg  30.3994 15.4002 9.24518
RightFoot  -5.35242 -0.370078 5.22941
RightToes  0.000482159 0.542163 -0.142577
Spine  18.8151 8.98436 9.28845
Spine1  9.95998 16.0999 -17.6563
HEad  -6.80778 -14.0619 2.83674
LeftShoulder1  9.95775 -14.5509 -48.1483
LeftArm  -20.9718 31.2988 -17.4184
LeftForeArm  14.2803 -71.3477 -35.5167
LeftHand  -0.25398 0.0180481 5.50724
RightShoulder  6.52059 12.8653 33.8759
RightArm  41.6631 37.898 70.9032
RightForeArm  -20.9721 14.8557 11.744
RightHand  -0.17455 -9.48246 2.86967
LeftUpLeg  -23.2849 5.99521 -18.1254
LeftLeg  20.735 4.6228 2.32332
LeftFoot  2.17569 -0.873775 7.23357
LeftToes  1.06248e-005 4.65855e-005 -8.18498e-006
134
root  -36.631 38.3713 16.4622 130.156 75.8682 130.499
RightUpLeg  12.3791 -16.1352 -9.5908
RightLeg  41.2851 13.6105 12.1915
RightFoot  6.12159 -1.87139 12.5866
RightToes  0.000482159 0.542163 -0.142577
Spine  19.7775 8.92305 8.29079
Spine1  9.9841 16.1559 -18.4141
HEad  -6.92924 -14.1595 2.9708
LeftShoulder1  10.0145 -14.6659 -48.1159
LeftArm  -21.7616 30.6769 -17.7057
LeftForeArm  13.4251 -71.0283 -34.822
LeftHand  -0.25398 0.0180481 5.50724
RightShoulder  6.55236 13.0249 33.6834
RightArm  40.6114 38.0071 71.0141
RightForeArm  -20.7544 14.6332 11.8271
RightHand  -0.145758 -9.07947 2.40654
LeftUpLeg  -22.441 5.25535 -17.9375
LeftLeg  23.6729 5.76018 3.08108
LeftFoot  -1.24784 -0.59208 6.75756
LeftToes  1.06248e-005 4.65855e-005 -8.18498e-006
135
root  -35.3025 38.5184 16.5648 128.411 75.4531 128.569
RightUpLeg  4.99087 -13.505 -9.91874
RightLeg  51.3645 8.95311 11.3538
RightFoot  12.7615 -3.07486 14.8898
RightToes  0.000482159 0.542163 -0.142577
Spine  20.3506 8.80973 7.39687
Spine1  10.5514 16.049 -18.5788
HEad  -6.40081 -13.9641 2.22611
LeftShoulder1  9.9965 -14.6369 -48.1062
LeftArm  -22.3483 29.726 -18.5141
LeftForeArm  11.7838 -70.2514 -33.1691
LeftHand  -0.25398 0.0180481 5.50724
RightShoulder  6.5285 13.1088 33.3406
RightArm  39.8798 38.5857 71.1078
RightForeArm  -19.937 14.2298 12.0172
RightHand  -0.145539 -8.95108 2.50727
LeftUpLeg  -20.5698 6.17142 -17.9598
LeftLeg  24.3805 4.73877 2.68844
LeftFoot  -4.25961 -0.327605 5.7052
LeftToes  1.06248e-005 4.65855e-005 -8.18498e-006
136
root  -33.8598 38.8835 16.6611 130.393 75.353 130.5
RightUpLeg  -1.96268 -12.3235 -9.80331
RightLeg  58.9441 3.1995 5.24614
RightFoot  12.3694 -2.26073 11.0311
RightToes  0.000482159 0.542163 -0.142577
Spine  20.6231 8.36353 7.27765
Spine1  10.5054 15.4191 -18.0018
HEad  -5.49567 -13.614 1.43671
LeftShoulder1  9.95905 -14.5828 -48.069
LeftArm  -22.1768 29.0082 -19.2222
LeftForeArm  10.1239 -69.3865 -31.5017
LeftHand  -0.25398 0.0180481 5.50724
RightShoulder  6.53053 13.0504 33.4916
RightArm  39.749 38.8738 70.7895
RightForeArm  -19.7835 14.341 11.904
RightHand  -0.137969 -8.85593 2.34875
LeftUpLeg  -17.3572 7.31828 -16.9007
LeftLeg  22.9127 3.22465 1.84661
LeftFoot  -5.91064 -0.172335 4.40333
LeftToes  1.06248e-005 4.65855e-005 -8.18498e-006
137
root  -32.3878 39.3702 16.7574 136.055 75.3855 136.168
RightUpLeg  -8.40536 -12.0633 -8.91875
RightLeg  62.9857 -1.01452 -2.61776
RightFoot  8.39599 -0.735387 4.53727
RightToes  0.000482159 0.542163 -0.142577
Spine  20.97 7.56701 7.99747
Spine1  9.98807 14.4647 -17.1262
HEad  -4.83634 -13.3059 1.09608
LeftShoulder1  9.9652 -14.6557 -47.9035
LeftArm  -21.4984 28.5101 -19.8526
LeftForeArm  8.67923 -68.6291 -30.1902
LeftHand  -0.25398 0.0180481 5.50724
RightShoulder  6.55697 12.9469 33.8982
RightArm  39.5908 38.7655 70.1841
RightForeArm  -20.5874 15.1034 11.3538
RightHand  -0.108758 -8.71503 1.51168
LeftUpLeg  -13.5224 7.60423 -14.8617
LeftLeg  20.2704 2.2079 1.21079
LeftFoot  -6.68076 -0.0894593 3.1917
LeftToes  1.06248e-005 4.65855e-005 -8.18498e-006
138
root  -30.9538 39.7581 16.8509 142.71 75.3833 142.83
RightUpLeg  -14.3752 -11.5807 -7.83399
RightLeg  63.1261 -2.86698 -6.68344
RightFoot  4.76919 0.00911033 0.238399
RightToes  0.000482159 0.542163 -0.142577
Spine  21.2872 6.81985 9.00986
Spine1  9.70684 13.609 -16.3431
HEad  -4.46632 -13.0507 0.998779
LeftShoulder1  9.98646 -14.8203 -47.5693
LeftArm  -20.7911 28.0671 -20.6189
LeftForeArm  7.61986 -68.0515 -29.2633
LeftHand  -0.25398 0.0180481 5.50724
RightShoulder  6.57838 12.9189 34.0949
RightArm  38.9739 38.7679 69.699
RightForeArm  -21.3537 15.8872 10.7356
RightHand  -0.0806056 -8.7927 0.560911
LeftUpLeg  -10.0261 6.90652 -12.4375
LeftLeg  18.0828 1.81941 0.576078
LeftFoot  -7.66771 -0.0368165 2.59795
LeftToes  1.06248e-005 4.65855e-005 -8.18498e-006
139
root  -29.478 40.0671 16.9311 149.057 75.3781 149.343
RightUpLeg  -19.1799 -10.8325 -6.95419
RightLeg  59.3117 -3.13322 -6.21464
RightFoot  2.68337 0.14117 -0.976219
RightToes  0.000482159 0.542163 -0.142577
Spine  21.4319 6.21262 10.232
Spine1  9.64692 12.9575 -15.5667
HEad  -3.90415 -12.8228 0.86155
LeftShoulder1  9.97918 -14.9562 -47.177
LeftArm  -20.0367 27.7489 -21.2695
LeftForeArm  6.9667 -67.6972 -28.7263
LeftHand  -0.25398 0.0180481 5.50724
RightShoulder  6.57419 12.9231 34.0597
RightArm  38.5872 39.0858 69.4878
RightForeArm  -21.6569 16.3279 10.3683
RightHand  -0.0699744 -9.17683 0.105342
LeftUpLeg  -6.32361 5.36848 -9.71113
LeftLeg  15.8004 2.14754 -0.357109
LeftFoot  -8.67092 0.000234243 2.22335
LeftToes  1.06248e-005 4.65855e-005 -8.18498e-006
140
root  -27.9536 40.2482 17.001 153.704 75.1563 154.365
RightUpLeg  -22.2753 -10.5676 -6.6316
RightLeg  51.9218 -2.8832 -4.32589
RightFoot  0.968609 0.102737 -0.885804
RightToes  0.000482159 0.542163 -0.142577
Spine  21.582 5.7449 11.1675
Spine1  9.4761 12.4127 -14.9205
HEad  -2.96058 -12.6822 0.69281
LeftShoulder1  9.96127 -15.0462 -46.8567
LeftArm  -19.0868 27.6619 -21.4652
LeftForeArm  6.43913 -67.5318 -28.5143
LeftHand  -0.25398 0.0180481 5.50724
RightShoulder  6.51968 12.8518 33.9023
RightArm  39.749 39.3901 69.433
RightForeArm  -22.6282 16.9155 10.0266
RightHand  -0.0655388 -9.38151 -0.0644587
LeftUpLeg  -2.61356 3.98763 -7.4689
LeftLeg  13.8959 2.55476 -1.03652
LeftFoot  -9.70303 0.0349638 1.6026
LeftToes  1.06248e-005 4.65855e-005 -8.18498e-006
